<?xml version="1.0" encoding="UTF-8"?>
<mxfile host="app.diagrams.net" modified="2025-07-08T12:30:00.000Z" agent="EnhancedDrawioGenerator" etag="kosyanchuk_v2" version="24.6.4" type="device" pages="9">
  <diagram id="usecase" name="Use Case Diagram">
    <mxGraphModel dx="1422" dy="827" grid="1" gridSize="10" guides="1" tooltips="1" connect="1" arrows="1" fold="1" page="1" pageScale="1" pageWidth="1169" pageHeight="827" math="0" shadow="0">
      <root>
        <mxCell id="0"/>
        <mxCell id="1" parent="0"/>
        <mxCell id="id_2" value="Відвідувач" style="shape=umlActor;verticalLabelPosition=bottom;verticalAlign=top;html=1;outlineConnect=0;fillColor=#dae8fc;strokeColor=#6c8ebf;" vertex="1" parent="1">
          <mxGeometry x="50" y="150" width="30" height="60" as="geometry"/>
        </mxCell>
        <mxCell id="id_3" value="Зареєстрований\nкористувач" style="shape=umlActor;verticalLabelPosition=bottom;verticalAlign=top;html=1;outlineConnect=0;fillColor=#dae8fc;strokeColor=#6c8ebf;" vertex="1" parent="1">
          <mxGeometry x="50" y="300" width="30" height="60" as="geometry"/>
        </mxCell>
        <mxCell id="id_4" value="Адміністратор" style="shape=umlActor;verticalLabelPosition=bottom;verticalAlign=top;html=1;outlineConnect=0;fillColor=#dae8fc;strokeColor=#6c8ebf;" vertex="1" parent="1">
          <mxGeometry x="50" y="450" width="30" height="60" as="geometry"/>
        </mxCell>
        <mxCell id="id_5" value="Перегляд каталогу" style="ellipse;whiteSpace=wrap;html=1;fillColor=#fff2cc;strokeColor=#d6b656;" vertex="1" parent="1">
          <mxGeometry x="200" y="100" width="120" height="60" as="geometry"/>
        </mxCell>
        <mxCell id="id_6" value="Пошук товарів" style="ellipse;whiteSpace=wrap;html=1;fillColor=#fff2cc;strokeColor=#d6b656;" vertex="1" parent="1">
          <mxGeometry x="200" y="180" width="120" height="60" as="geometry"/>
        </mxCell>
        <mxCell id="id_7" value="Фільтрація товарів" style="ellipse;whiteSpace=wrap;html=1;fillColor=#fff2cc;strokeColor=#d6b656;" vertex="1" parent="1">
          <mxGeometry x="200" y="260" width="120" height="60" as="geometry"/>
        </mxCell>
        <mxCell id="id_8" value="Реєстрація" style="ellipse;whiteSpace=wrap;html=1;fillColor=#fff2cc;strokeColor=#d6b656;" vertex="1" parent="1">
          <mxGeometry x="380" y="180" width="120" height="60" as="geometry"/>
        </mxCell>
        <mxCell id="id_9" value="Авторизація" style="ellipse;whiteSpace=wrap;html=1;fillColor=#fff2cc;strokeColor=#d6b656;" vertex="1" parent="1">
          <mxGeometry x="380" y="260" width="120" height="60" as="geometry"/>
        </mxCell>
        <mxCell id="id_10" value="Додавання в кошик" style="ellipse;whiteSpace=wrap;html=1;fillColor=#fff2cc;strokeColor=#d6b656;" vertex="1" parent="1">
          <mxGeometry x="380" y="340" width="120" height="60" as="geometry"/>
        </mxCell>
        <mxCell id="id_11" value="Оформлення\nзамовлення" style="ellipse;whiteSpace=wrap;html=1;fillColor=#fff2cc;strokeColor=#d6b656;" vertex="1" parent="1">
          <mxGeometry x="560" y="260" width="120" height="60" as="geometry"/>
        </mxCell>
        <mxCell id="id_12" value="Історія замовлень" style="ellipse;whiteSpace=wrap;html=1;fillColor=#fff2cc;strokeColor=#d6b656;" vertex="1" parent="1">
          <mxGeometry x="560" y="340" width="120" height="60" as="geometry"/>
        </mxCell>
        <mxCell id="id_13" value="Управління\nтоварами" style="ellipse;whiteSpace=wrap;html=1;fillColor=#fff2cc;strokeColor=#d6b656;" vertex="1" parent="1">
          <mxGeometry x="200" y="420" width="120" height="60" as="geometry"/>
        </mxCell>
        <mxCell id="id_14" value="Управління\nкатегоріями" style="ellipse;whiteSpace=wrap;html=1;fillColor=#fff2cc;strokeColor=#d6b656;" vertex="1" parent="1">
          <mxGeometry x="200" y="500" width="120" height="60" as="geometry"/>
        </mxCell>
        <mxCell id="id_15" value="Управління\nзамовленнями" style="ellipse;whiteSpace=wrap;html=1;fillColor=#fff2cc;strokeColor=#d6b656;" vertex="1" parent="1">
          <mxGeometry x="380" y="420" width="120" height="60" as="geometry"/>
        </mxCell>
        <mxCell id="id_16" value="" style="endArrow=none;html=1;rounded=0;" edge="1" parent="1" source="id_2" target="id_5">
          <mxGeometry relative="1" as="geometry"/>
        </mxCell>
        <mxCell id="id_17" value="" style="endArrow=none;html=1;rounded=0;" edge="1" parent="1" source="id_2" target="id_6">
          <mxGeometry relative="1" as="geometry"/>
        </mxCell>
        <mxCell id="id_18" value="" style="endArrow=none;html=1;rounded=0;" edge="1" parent="1" source="id_2" target="id_7">
          <mxGeometry relative="1" as="geometry"/>
        </mxCell>
        <mxCell id="id_19" value="" style="endArrow=none;html=1;rounded=0;" edge="1" parent="1" source="id_2" target="id_8">
          <mxGeometry relative="1" as="geometry"/>
        </mxCell>
        <mxCell id="id_20" value="" style="endArrow=none;html=1;rounded=0;" edge="1" parent="1" source="id_3" target="id_9">
          <mxGeometry relative="1" as="geometry"/>
        </mxCell>
        <mxCell id="id_21" value="" style="endArrow=none;html=1;rounded=0;" edge="1" parent="1" source="id_3" target="id_10">
          <mxGeometry relative="1" as="geometry"/>
        </mxCell>
        <mxCell id="id_22" value="" style="endArrow=none;html=1;rounded=0;" edge="1" parent="1" source="id_3" target="id_11">
          <mxGeometry relative="1" as="geometry"/>
        </mxCell>
        <mxCell id="id_23" value="" style="endArrow=none;html=1;rounded=0;" edge="1" parent="1" source="id_3" target="id_12">
          <mxGeometry relative="1" as="geometry"/>
        </mxCell>
        <mxCell id="id_24" value="" style="endArrow=none;html=1;rounded=0;" edge="1" parent="1" source="id_4" target="id_13">
          <mxGeometry relative="1" as="geometry"/>
        </mxCell>
        <mxCell id="id_25" value="" style="endArrow=none;html=1;rounded=0;" edge="1" parent="1" source="id_4" target="id_14">
          <mxGeometry relative="1" as="geometry"/>
        </mxCell>
        <mxCell id="id_26" value="" style="endArrow=none;html=1;rounded=0;" edge="1" parent="1" source="id_4" target="id_15">
          <mxGeometry relative="1" as="geometry"/>
        </mxCell>
        <mxCell id="id_27" value="&amp;lt;&amp;lt;extends&amp;gt;&amp;gt;" style="endArrow=open;dashed=1;html=1;dashPattern=1 3;strokeWidth=2;" edge="1" parent="1" source="id_3" target="id_2">
          <mxGeometry width="50" height="50" relative="1" as="geometry">
            <mxPoint x="100" y="250" as="sourcePoint"/>
            <mxPoint x="100" y="200" as="targetPoint"/>
          </mxGeometry>
        </mxCell>

      </root>
    </mxGraphModel>
  </diagram>
  <diagram id="er" name="ER Diagram">
    <mxGraphModel dx="1422" dy="827" grid="1" gridSize="10" guides="1" tooltips="1" connect="1" arrows="1" fold="1" page="1" pageScale="1" pageWidth="1169" pageHeight="827" math="0" shadow="0">
      <root>
        <mxCell id="0"/>
        <mxCell id="1" parent="0"/>
        <mxCell id="id_2" value="Users" style="swimlane;fontStyle=1;childLayout=stackLayout;horizontal=1;startSize=26;fillColor=#dae8fc;strokeColor=#6c8ebf;" vertex="1" parent="1">
          <mxGeometry x="50" y="50" width="200" height="208" as="geometry"/>
        </mxCell>
        <mxCell id="id_3" value="id (PK, INT)" style="text;strokeColor=none;fillColor=none;align=left;verticalAlign=top;spacingLeft=4;spacingRight=4;overflow=hidden;rotatable=0;points=[[0,0.5],[1,0.5]];portConstraint=eastwest;fontStyle=4;" vertex="1" parent="id_2">
          <mxGeometry y="26" width="200" height="26" as="geometry"/>
        </mxCell>
        <mxCell id="id_4" value="name (VARCHAR)" style="text;strokeColor=none;fillColor=none;align=left;verticalAlign=top;spacingLeft=4;spacingRight=4;overflow=hidden;rotatable=0;points=[[0,0.5],[1,0.5]];portConstraint=eastwest;" vertex="1" parent="id_2">
          <mxGeometry y="52" width="200" height="26" as="geometry"/>
        </mxCell>
        <mxCell id="id_5" value="email (VARCHAR, UNIQUE)" style="text;strokeColor=none;fillColor=none;align=left;verticalAlign=top;spacingLeft=4;spacingRight=4;overflow=hidden;rotatable=0;points=[[0,0.5],[1,0.5]];portConstraint=eastwest;" vertex="1" parent="id_2">
          <mxGeometry y="78" width="200" height="26" as="geometry"/>
        </mxCell>
        <mxCell id="id_6" value="password (VARCHAR)" style="text;strokeColor=none;fillColor=none;align=left;verticalAlign=top;spacingLeft=4;spacingRight=4;overflow=hidden;rotatable=0;points=[[0,0.5],[1,0.5]];portConstraint=eastwest;" vertex="1" parent="id_2">
          <mxGeometry y="104" width="200" height="26" as="geometry"/>
        </mxCell>
        <mxCell id="id_7" value="is_admin (BOOLEAN)" style="text;strokeColor=none;fillColor=none;align=left;verticalAlign=top;spacingLeft=4;spacingRight=4;overflow=hidden;rotatable=0;points=[[0,0.5],[1,0.5]];portConstraint=eastwest;" vertex="1" parent="id_2">
          <mxGeometry y="130" width="200" height="26" as="geometry"/>
        </mxCell>
        <mxCell id="id_8" value="created_at (TIMESTAMP)" style="text;strokeColor=none;fillColor=none;align=left;verticalAlign=top;spacingLeft=4;spacingRight=4;overflow=hidden;rotatable=0;points=[[0,0.5],[1,0.5]];portConstraint=eastwest;" vertex="1" parent="id_2">
          <mxGeometry y="156" width="200" height="26" as="geometry"/>
        </mxCell>
        <mxCell id="id_9" value="updated_at (TIMESTAMP)" style="text;strokeColor=none;fillColor=none;align=left;verticalAlign=top;spacingLeft=4;spacingRight=4;overflow=hidden;rotatable=0;points=[[0,0.5],[1,0.5]];portConstraint=eastwest;" vertex="1" parent="id_2">
          <mxGeometry y="182" width="200" height="26" as="geometry"/>
        </mxCell>
        <mxCell id="id_10" value="Categories" style="swimlane;fontStyle=1;childLayout=stackLayout;horizontal=1;startSize=26;fillColor=#d5e8d4;strokeColor=#82b366;" vertex="1" parent="1">
          <mxGeometry x="300" y="50" width="200" height="234" as="geometry"/>
        </mxCell>
        <mxCell id="id_11" value="id (PK, INT)" style="text;strokeColor=none;fillColor=none;align=left;verticalAlign=top;spacingLeft=4;spacingRight=4;overflow=hidden;rotatable=0;points=[[0,0.5],[1,0.5]];portConstraint=eastwest;fontStyle=4;" vertex="1" parent="id_10">
          <mxGeometry y="26" width="200" height="26" as="geometry"/>
        </mxCell>
        <mxCell id="id_12" value="name_uk (VARCHAR)" style="text;strokeColor=none;fillColor=none;align=left;verticalAlign=top;spacingLeft=4;spacingRight=4;overflow=hidden;rotatable=0;points=[[0,0.5],[1,0.5]];portConstraint=eastwest;" vertex="1" parent="id_10">
          <mxGeometry y="52" width="200" height="26" as="geometry"/>
        </mxCell>
        <mxCell id="id_13" value="name_en (VARCHAR)" style="text;strokeColor=none;fillColor=none;align=left;verticalAlign=top;spacingLeft=4;spacingRight=4;overflow=hidden;rotatable=0;points=[[0,0.5],[1,0.5]];portConstraint=eastwest;" vertex="1" parent="id_10">
          <mxGeometry y="78" width="200" height="26" as="geometry"/>
        </mxCell>
        <mxCell id="id_14" value="slug (VARCHAR, UNIQUE)" style="text;strokeColor=none;fillColor=none;align=left;verticalAlign=top;spacingLeft=4;spacingRight=4;overflow=hidden;rotatable=0;points=[[0,0.5],[1,0.5]];portConstraint=eastwest;" vertex="1" parent="id_10">
          <mxGeometry y="104" width="200" height="26" as="geometry"/>
        </mxCell>
        <mxCell id="id_15" value="description_uk (TEXT)" style="text;strokeColor=none;fillColor=none;align=left;verticalAlign=top;spacingLeft=4;spacingRight=4;overflow=hidden;rotatable=0;points=[[0,0.5],[1,0.5]];portConstraint=eastwest;" vertex="1" parent="id_10">
          <mxGeometry y="130" width="200" height="26" as="geometry"/>
        </mxCell>
        <mxCell id="id_16" value="description_en (TEXT)" style="text;strokeColor=none;fillColor=none;align=left;verticalAlign=top;spacingLeft=4;spacingRight=4;overflow=hidden;rotatable=0;points=[[0,0.5],[1,0.5]];portConstraint=eastwest;" vertex="1" parent="id_10">
          <mxGeometry y="156" width="200" height="26" as="geometry"/>
        </mxCell>
        <mxCell id="id_17" value="is_active (BOOLEAN)" style="text;strokeColor=none;fillColor=none;align=left;verticalAlign=top;spacingLeft=4;spacingRight=4;overflow=hidden;rotatable=0;points=[[0,0.5],[1,0.5]];portConstraint=eastwest;" vertex="1" parent="id_10">
          <mxGeometry y="182" width="200" height="26" as="geometry"/>
        </mxCell>
        <mxCell id="id_18" value="created_at (TIMESTAMP)" style="text;strokeColor=none;fillColor=none;align=left;verticalAlign=top;spacingLeft=4;spacingRight=4;overflow=hidden;rotatable=0;points=[[0,0.5],[1,0.5]];portConstraint=eastwest;" vertex="1" parent="id_10">
          <mxGeometry y="208" width="200" height="26" as="geometry"/>
        </mxCell>
        <mxCell id="id_19" value="updated_at (TIMESTAMP)" style="text;strokeColor=none;fillColor=none;align=left;verticalAlign=top;spacingLeft=4;spacingRight=4;overflow=hidden;rotatable=0;points=[[0,0.5],[1,0.5]];portConstraint=eastwest;" vertex="1" parent="id_10">
          <mxGeometry y="234" width="200" height="26" as="geometry"/>
        </mxCell>
        <mxCell id="id_20" value="Products" style="swimlane;fontStyle=1;childLayout=stackLayout;horizontal=1;startSize=26;fillColor=#ffe6cc;strokeColor=#d79b00;" vertex="1" parent="1">
          <mxGeometry x="550" y="50" width="220" height="364" as="geometry"/>
        </mxCell>
        <mxCell id="id_21" value="id (PK, INT)" style="text;strokeColor=none;fillColor=none;align=left;verticalAlign=top;spacingLeft=4;spacingRight=4;overflow=hidden;rotatable=0;points=[[0,0.5],[1,0.5]];portConstraint=eastwest;fontStyle=4;" vertex="1" parent="id_20">
          <mxGeometry y="26" width="220" height="26" as="geometry"/>
        </mxCell>
        <mxCell id="id_22" value="category_id (FK → Categories.id)" style="text;strokeColor=none;fillColor=none;align=left;verticalAlign=top;spacingLeft=4;spacingRight=4;overflow=hidden;rotatable=0;points=[[0,0.5],[1,0.5]];portConstraint=eastwest;fontStyle=2;" vertex="1" parent="id_20">
          <mxGeometry y="52" width="220" height="26" as="geometry"/>
        </mxCell>
        <mxCell id="id_23" value="name_uk (VARCHAR)" style="text;strokeColor=none;fillColor=none;align=left;verticalAlign=top;spacingLeft=4;spacingRight=4;overflow=hidden;rotatable=0;points=[[0,0.5],[1,0.5]];portConstraint=eastwest;" vertex="1" parent="id_20">
          <mxGeometry y="78" width="220" height="26" as="geometry"/>
        </mxCell>
        <mxCell id="id_24" value="name_en (VARCHAR)" style="text;strokeColor=none;fillColor=none;align=left;verticalAlign=top;spacingLeft=4;spacingRight=4;overflow=hidden;rotatable=0;points=[[0,0.5],[1,0.5]];portConstraint=eastwest;" vertex="1" parent="id_20">
          <mxGeometry y="104" width="220" height="26" as="geometry"/>
        </mxCell>
        <mxCell id="id_25" value="slug (VARCHAR, UNIQUE)" style="text;strokeColor=none;fillColor=none;align=left;verticalAlign=top;spacingLeft=4;spacingRight=4;overflow=hidden;rotatable=0;points=[[0,0.5],[1,0.5]];portConstraint=eastwest;" vertex="1" parent="id_20">
          <mxGeometry y="130" width="220" height="26" as="geometry"/>
        </mxCell>
        <mxCell id="id_26" value="description_uk (TEXT)" style="text;strokeColor=none;fillColor=none;align=left;verticalAlign=top;spacingLeft=4;spacingRight=4;overflow=hidden;rotatable=0;points=[[0,0.5],[1,0.5]];portConstraint=eastwest;" vertex="1" parent="id_20">
          <mxGeometry y="156" width="220" height="26" as="geometry"/>
        </mxCell>
        <mxCell id="id_27" value="description_en (TEXT)" style="text;strokeColor=none;fillColor=none;align=left;verticalAlign=top;spacingLeft=4;spacingRight=4;overflow=hidden;rotatable=0;points=[[0,0.5],[1,0.5]];portConstraint=eastwest;" vertex="1" parent="id_20">
          <mxGeometry y="182" width="220" height="26" as="geometry"/>
        </mxCell>
        <mxCell id="id_28" value="price (DECIMAL)" style="text;strokeColor=none;fillColor=none;align=left;verticalAlign=top;spacingLeft=4;spacingRight=4;overflow=hidden;rotatable=0;points=[[0,0.5],[1,0.5]];portConstraint=eastwest;" vertex="1" parent="id_20">
          <mxGeometry y="208" width="220" height="26" as="geometry"/>
        </mxCell>
        <mxCell id="id_29" value="sale_price (DECIMAL)" style="text;strokeColor=none;fillColor=none;align=left;verticalAlign=top;spacingLeft=4;spacingRight=4;overflow=hidden;rotatable=0;points=[[0,0.5],[1,0.5]];portConstraint=eastwest;" vertex="1" parent="id_20">
          <mxGeometry y="234" width="220" height="26" as="geometry"/>
        </mxCell>
        <mxCell id="id_30" value="stock_quantity (INT)" style="text;strokeColor=none;fillColor=none;align=left;verticalAlign=top;spacingLeft=4;spacingRight=4;overflow=hidden;rotatable=0;points=[[0,0.5],[1,0.5]];portConstraint=eastwest;" vertex="1" parent="id_20">
          <mxGeometry y="260" width="220" height="26" as="geometry"/>
        </mxCell>
        <mxCell id="id_31" value="sku (VARCHAR)" style="text;strokeColor=none;fillColor=none;align=left;verticalAlign=top;spacingLeft=4;spacingRight=4;overflow=hidden;rotatable=0;points=[[0,0.5],[1,0.5]];portConstraint=eastwest;" vertex="1" parent="id_20">
          <mxGeometry y="286" width="220" height="26" as="geometry"/>
        </mxCell>
        <mxCell id="id_32" value="is_active (BOOLEAN)" style="text;strokeColor=none;fillColor=none;align=left;verticalAlign=top;spacingLeft=4;spacingRight=4;overflow=hidden;rotatable=0;points=[[0,0.5],[1,0.5]];portConstraint=eastwest;" vertex="1" parent="id_20">
          <mxGeometry y="312" width="220" height="26" as="geometry"/>
        </mxCell>
        <mxCell id="id_33" value="created_at (TIMESTAMP)" style="text;strokeColor=none;fillColor=none;align=left;verticalAlign=top;spacingLeft=4;spacingRight=4;overflow=hidden;rotatable=0;points=[[0,0.5],[1,0.5]];portConstraint=eastwest;" vertex="1" parent="id_20">
          <mxGeometry y="338" width="220" height="26" as="geometry"/>
        </mxCell>
        <mxCell id="id_34" value="updated_at (TIMESTAMP)" style="text;strokeColor=none;fillColor=none;align=left;verticalAlign=top;spacingLeft=4;spacingRight=4;overflow=hidden;rotatable=0;points=[[0,0.5],[1,0.5]];portConstraint=eastwest;" vertex="1" parent="id_20">
          <mxGeometry y="364" width="220" height="26" as="geometry"/>
        </mxCell>
        <mxCell id="id_35" value="Orders" style="swimlane;fontStyle=1;childLayout=stackLayout;horizontal=1;startSize=26;fillColor=#f8cecc;strokeColor=#b85450;" vertex="1" parent="1">
          <mxGeometry x="50" y="300" width="200" height="286" as="geometry"/>
        </mxCell>
        <mxCell id="id_36" value="id (PK, INT)" style="text;strokeColor=none;fillColor=none;align=left;verticalAlign=top;spacingLeft=4;spacingRight=4;overflow=hidden;rotatable=0;points=[[0,0.5],[1,0.5]];portConstraint=eastwest;fontStyle=4;" vertex="1" parent="id_35">
          <mxGeometry y="26" width="200" height="26" as="geometry"/>
        </mxCell>
        <mxCell id="id_37" value="user_id (FK → Users.id)" style="text;strokeColor=none;fillColor=none;align=left;verticalAlign=top;spacingLeft=4;spacingRight=4;overflow=hidden;rotatable=0;points=[[0,0.5],[1,0.5]];portConstraint=eastwest;fontStyle=2;" vertex="1" parent="id_35">
          <mxGeometry y="52" width="200" height="26" as="geometry"/>
        </mxCell>
        <mxCell id="id_38" value="status (ENUM)" style="text;strokeColor=none;fillColor=none;align=left;verticalAlign=top;spacingLeft=4;spacingRight=4;overflow=hidden;rotatable=0;points=[[0,0.5],[1,0.5]];portConstraint=eastwest;" vertex="1" parent="id_35">
          <mxGeometry y="78" width="200" height="26" as="geometry"/>
        </mxCell>
        <mxCell id="id_39" value="total_amount (DECIMAL)" style="text;strokeColor=none;fillColor=none;align=left;verticalAlign=top;spacingLeft=4;spacingRight=4;overflow=hidden;rotatable=0;points=[[0,0.5],[1,0.5]];portConstraint=eastwest;" vertex="1" parent="id_35">
          <mxGeometry y="104" width="200" height="26" as="geometry"/>
        </mxCell>
        <mxCell id="id_40" value="shipping_address (TEXT)" style="text;strokeColor=none;fillColor=none;align=left;verticalAlign=top;spacingLeft=4;spacingRight=4;overflow=hidden;rotatable=0;points=[[0,0.5],[1,0.5]];portConstraint=eastwest;" vertex="1" parent="id_35">
          <mxGeometry y="130" width="200" height="26" as="geometry"/>
        </mxCell>
        <mxCell id="id_41" value="billing_address (TEXT)" style="text;strokeColor=none;fillColor=none;align=left;verticalAlign=top;spacingLeft=4;spacingRight=4;overflow=hidden;rotatable=0;points=[[0,0.5],[1,0.5]];portConstraint=eastwest;" vertex="1" parent="id_35">
          <mxGeometry y="156" width="200" height="26" as="geometry"/>
        </mxCell>
        <mxCell id="id_42" value="payment_method (VARCHAR)" style="text;strokeColor=none;fillColor=none;align=left;verticalAlign=top;spacingLeft=4;spacingRight=4;overflow=hidden;rotatable=0;points=[[0,0.5],[1,0.5]];portConstraint=eastwest;" vertex="1" parent="id_35">
          <mxGeometry y="182" width="200" height="26" as="geometry"/>
        </mxCell>
        <mxCell id="id_43" value="payment_status (ENUM)" style="text;strokeColor=none;fillColor=none;align=left;verticalAlign=top;spacingLeft=4;spacingRight=4;overflow=hidden;rotatable=0;points=[[0,0.5],[1,0.5]];portConstraint=eastwest;" vertex="1" parent="id_35">
          <mxGeometry y="208" width="200" height="26" as="geometry"/>
        </mxCell>
        <mxCell id="id_44" value="notes (TEXT)" style="text;strokeColor=none;fillColor=none;align=left;verticalAlign=top;spacingLeft=4;spacingRight=4;overflow=hidden;rotatable=0;points=[[0,0.5],[1,0.5]];portConstraint=eastwest;" vertex="1" parent="id_35">
          <mxGeometry y="234" width="200" height="26" as="geometry"/>
        </mxCell>
        <mxCell id="id_45" value="created_at (TIMESTAMP)" style="text;strokeColor=none;fillColor=none;align=left;verticalAlign=top;spacingLeft=4;spacingRight=4;overflow=hidden;rotatable=0;points=[[0,0.5],[1,0.5]];portConstraint=eastwest;" vertex="1" parent="id_35">
          <mxGeometry y="260" width="200" height="26" as="geometry"/>
        </mxCell>
        <mxCell id="id_46" value="updated_at (TIMESTAMP)" style="text;strokeColor=none;fillColor=none;align=left;verticalAlign=top;spacingLeft=4;spacingRight=4;overflow=hidden;rotatable=0;points=[[0,0.5],[1,0.5]];portConstraint=eastwest;" vertex="1" parent="id_35">
          <mxGeometry y="286" width="200" height="26" as="geometry"/>
        </mxCell>
        <mxCell id="id_47" value="Order_Items" style="swimlane;fontStyle=1;childLayout=stackLayout;horizontal=1;startSize=26;fillColor=#e1d5e7;strokeColor=#9673a6;" vertex="1" parent="1">
          <mxGeometry x="300" y="350" width="200" height="182" as="geometry"/>
        </mxCell>
        <mxCell id="id_48" value="id (PK, INT)" style="text;strokeColor=none;fillColor=none;align=left;verticalAlign=top;spacingLeft=4;spacingRight=4;overflow=hidden;rotatable=0;points=[[0,0.5],[1,0.5]];portConstraint=eastwest;fontStyle=4;" vertex="1" parent="id_47">
          <mxGeometry y="26" width="200" height="26" as="geometry"/>
        </mxCell>
        <mxCell id="id_49" value="order_id (FK → Orders.id)" style="text;strokeColor=none;fillColor=none;align=left;verticalAlign=top;spacingLeft=4;spacingRight=4;overflow=hidden;rotatable=0;points=[[0,0.5],[1,0.5]];portConstraint=eastwest;fontStyle=2;" vertex="1" parent="id_47">
          <mxGeometry y="52" width="200" height="26" as="geometry"/>
        </mxCell>
        <mxCell id="id_50" value="product_id (FK → Products.id)" style="text;strokeColor=none;fillColor=none;align=left;verticalAlign=top;spacingLeft=4;spacingRight=4;overflow=hidden;rotatable=0;points=[[0,0.5],[1,0.5]];portConstraint=eastwest;fontStyle=2;" vertex="1" parent="id_47">
          <mxGeometry y="78" width="200" height="26" as="geometry"/>
        </mxCell>
        <mxCell id="id_51" value="quantity (INT)" style="text;strokeColor=none;fillColor=none;align=left;verticalAlign=top;spacingLeft=4;spacingRight=4;overflow=hidden;rotatable=0;points=[[0,0.5],[1,0.5]];portConstraint=eastwest;" vertex="1" parent="id_47">
          <mxGeometry y="104" width="200" height="26" as="geometry"/>
        </mxCell>
        <mxCell id="id_52" value="unit_price (DECIMAL)" style="text;strokeColor=none;fillColor=none;align=left;verticalAlign=top;spacingLeft=4;spacingRight=4;overflow=hidden;rotatable=0;points=[[0,0.5],[1,0.5]];portConstraint=eastwest;" vertex="1" parent="id_47">
          <mxGeometry y="130" width="200" height="26" as="geometry"/>
        </mxCell>
        <mxCell id="id_53" value="total_price (DECIMAL)" style="text;strokeColor=none;fillColor=none;align=left;verticalAlign=top;spacingLeft=4;spacingRight=4;overflow=hidden;rotatable=0;points=[[0,0.5],[1,0.5]];portConstraint=eastwest;" vertex="1" parent="id_47">
          <mxGeometry y="156" width="200" height="26" as="geometry"/>
        </mxCell>
        <mxCell id="id_54" value="created_at (TIMESTAMP)" style="text;strokeColor=none;fillColor=none;align=left;verticalAlign=top;spacingLeft=4;spacingRight=4;overflow=hidden;rotatable=0;points=[[0,0.5],[1,0.5]];portConstraint=eastwest;" vertex="1" parent="id_47">
          <mxGeometry y="182" width="200" height="26" as="geometry"/>
        </mxCell>
        <mxCell id="id_55" value="" style="endArrow=none;html=1;rounded=0;entryX=0;entryY=0.5;entryDx=0;entryDy=0;exitX=1;exitY=0.5;exitDx=0;exitDy=0;" edge="1" parent="1" source="id_10" target="id_20">
          <mxGeometry width="50" height="50" relative="1" as="geometry">
            <mxPoint x="500" y="167" as="sourcePoint"/>
            <mxPoint x="550" y="167" as="targetPoint"/>
          </mxGeometry>
        </mxCell>
        <mxCell id="id_56" value="1" style="text;html=1;align=center;verticalAlign=middle;resizable=0;points=[];autosize=1;" vertex="1" parent="1">
          <mxGeometry x="500" y="152" width="20" height="20" as="geometry"/>
        </mxCell>
        <mxCell id="id_57" value="M" style="text;html=1;align=center;verticalAlign=middle;resizable=0;points=[];autosize=1;" vertex="1" parent="1">
          <mxGeometry x="530" y="152" width="20" height="20" as="geometry"/>
        </mxCell>
        <mxCell id="id_58" value="" style="endArrow=none;html=1;rounded=0;" edge="1" parent="1" source="id_2" target="id_35">
          <mxGeometry width="50" height="50" relative="1" as="geometry">
            <mxPoint x="150" y="260" as="sourcePoint"/>
            <mxPoint x="150" y="300" as="targetPoint"/>
          </mxGeometry>
        </mxCell>
        <mxCell id="id_59" value="1" style="text;html=1;align=center;verticalAlign=middle;resizable=0;points=[];autosize=1;" vertex="1" parent="1">
          <mxGeometry x="130" y="260" width="20" height="20" as="geometry"/>
        </mxCell>
        <mxCell id="id_60" value="M" style="text;html=1;align=center;verticalAlign=middle;resizable=0;points=[];autosize=1;" vertex="1" parent="1">
          <mxGeometry x="130" y="280" width="20" height="20" as="geometry"/>
        </mxCell>
        <mxCell id="id_61" value="" style="endArrow=none;html=1;rounded=0;" edge="1" parent="1" source="id_35" target="id_47">
          <mxGeometry width="50" height="50" relative="1" as="geometry">
            <mxPoint x="250" y="440" as="sourcePoint"/>
            <mxPoint x="300" y="440" as="targetPoint"/>
          </mxGeometry>
        </mxCell>
        <mxCell id="id_62" value="1" style="text;html=1;align=center;verticalAlign=middle;resizable=0;points=[];autosize=1;" vertex="1" parent="1">
          <mxGeometry x="250" y="425" width="20" height="20" as="geometry"/>
        </mxCell>
        <mxCell id="id_63" value="M" style="text;html=1;align=center;verticalAlign=middle;resizable=0;points=[];autosize=1;" vertex="1" parent="1">
          <mxGeometry x="280" y="425" width="20" height="20" as="geometry"/>
        </mxCell>
        <mxCell id="id_64" value="" style="endArrow=none;html=1;rounded=0;" edge="1" parent="1" source="id_47" target="id_20">
          <mxGeometry width="50" height="50" relative="1" as="geometry">
            <mxPoint x="500" y="380" as="sourcePoint"/>
            <mxPoint x="550" y="300" as="targetPoint"/>
          </mxGeometry>
        </mxCell>
        <mxCell id="id_65" value="M" style="text;html=1;align=center;verticalAlign=middle;resizable=0;points=[];autosize=1;" vertex="1" parent="1">
          <mxGeometry x="500" y="365" width="20" height="20" as="geometry"/>
        </mxCell>
        <mxCell id="id_66" value="1" style="text;html=1;align=center;verticalAlign=middle;resizable=0;points=[];autosize=1;" vertex="1" parent="1">
          <mxGeometry x="530" y="300" width="20" height="20" as="geometry"/>
        </mxCell>

      </root>
    </mxGraphModel>
  </diagram>
  <diagram id="class" name="Class Diagram">
    <mxGraphModel dx="1422" dy="827" grid="1" gridSize="10" guides="1" tooltips="1" connect="1" arrows="1" fold="1" page="1" pageScale="1" pageWidth="1169" pageHeight="827" math="0" shadow="0">
      <root>
        <mxCell id="0"/>
        <mxCell id="1" parent="0"/>
        <mxCell id="id_2" value="User" style="swimlane;fontStyle=1;align=center;verticalAlign=top;childLayout=stackLayout;horizontal=1;startSize=26;horizontalStack=0;resizeParent=1;resizeParentMax=0;resizeLast=0;collapsible=1;marginBottom=0;fillColor=#dae8fc;strokeColor=#6c8ebf;" vertex="1" parent="1">
          <mxGeometry x="50" y="50" width="200" height="246" as="geometry"/>
        </mxCell>
        <mxCell id="id_3" value="- id: int" style="text;strokeColor=none;fillColor=none;align=left;verticalAlign=top;spacingLeft=4;spacingRight=4;overflow=hidden;rotatable=0;points=[[0,0.5],[1,0.5]];portConstraint=eastwest;" vertex="1" parent="id_2">
          <mxGeometry y="26" width="200" height="20" as="geometry"/>
        </mxCell>
        <mxCell id="id_4" value="- name: string" style="text;strokeColor=none;fillColor=none;align=left;verticalAlign=top;spacingLeft=4;spacingRight=4;overflow=hidden;rotatable=0;points=[[0,0.5],[1,0.5]];portConstraint=eastwest;" vertex="1" parent="id_2">
          <mxGeometry y="46" width="200" height="20" as="geometry"/>
        </mxCell>
        <mxCell id="id_5" value="- email: string" style="text;strokeColor=none;fillColor=none;align=left;verticalAlign=top;spacingLeft=4;spacingRight=4;overflow=hidden;rotatable=0;points=[[0,0.5],[1,0.5]];portConstraint=eastwest;" vertex="1" parent="id_2">
          <mxGeometry y="66" width="200" height="20" as="geometry"/>
        </mxCell>
        <mxCell id="id_6" value="- password: string" style="text;strokeColor=none;fillColor=none;align=left;verticalAlign=top;spacingLeft=4;spacingRight=4;overflow=hidden;rotatable=0;points=[[0,0.5],[1,0.5]];portConstraint=eastwest;" vertex="1" parent="id_2">
          <mxGeometry y="86" width="200" height="20" as="geometry"/>
        </mxCell>
        <mxCell id="id_7" value="- is_admin: boolean" style="text;strokeColor=none;fillColor=none;align=left;verticalAlign=top;spacingLeft=4;spacingRight=4;overflow=hidden;rotatable=0;points=[[0,0.5],[1,0.5]];portConstraint=eastwest;" vertex="1" parent="id_2">
          <mxGeometry y="106" width="200" height="20" as="geometry"/>
        </mxCell>
        <mxCell id="id_8" value="" style="line;strokeWidth=1;fillColor=none;align=left;verticalAlign=middle;spacingTop=-1;spacingLeft=3;spacingRight=3;rotatable=0;labelPosition=right;points=[];portConstraint=eastwest;" vertex="1" parent="id_2">
          <mxGeometry y="126" width="200" height="8" as="geometry"/>
        </mxCell>
        <mxCell id="id_9" value="+ register(): boolean" style="text;strokeColor=none;fillColor=none;align=left;verticalAlign=top;spacingLeft=4;spacingRight=4;overflow=hidden;rotatable=0;points=[[0,0.5],[1,0.5]];portConstraint=eastwest;" vertex="1" parent="id_2">
          <mxGeometry y="134" width="200" height="20" as="geometry"/>
        </mxCell>
        <mxCell id="id_10" value="+ login(): boolean" style="text;strokeColor=none;fillColor=none;align=left;verticalAlign=top;spacingLeft=4;spacingRight=4;overflow=hidden;rotatable=0;points=[[0,0.5],[1,0.5]];portConstraint=eastwest;" vertex="1" parent="id_2">
          <mxGeometry y="154" width="200" height="20" as="geometry"/>
        </mxCell>
        <mxCell id="id_11" value="+ logout(): void" style="text;strokeColor=none;fillColor=none;align=left;verticalAlign=top;spacingLeft=4;spacingRight=4;overflow=hidden;rotatable=0;points=[[0,0.5],[1,0.5]];portConstraint=eastwest;" vertex="1" parent="id_2">
          <mxGeometry y="174" width="200" height="20" as="geometry"/>
        </mxCell>
        <mxCell id="id_12" value="+ updateProfile(): boolean" style="text;strokeColor=none;fillColor=none;align=left;verticalAlign=top;spacingLeft=4;spacingRight=4;overflow=hidden;rotatable=0;points=[[0,0.5],[1,0.5]];portConstraint=eastwest;" vertex="1" parent="id_2">
          <mxGeometry y="194" width="200" height="20" as="geometry"/>
        </mxCell>
        <mxCell id="id_13" value="+ getOrders(): Order[]" style="text;strokeColor=none;fillColor=none;align=left;verticalAlign=top;spacingLeft=4;spacingRight=4;overflow=hidden;rotatable=0;points=[[0,0.5],[1,0.5]];portConstraint=eastwest;" vertex="1" parent="id_2">
          <mxGeometry y="214" width="200" height="20" as="geometry"/>
        </mxCell>
        <mxCell id="id_14" value="Product" style="swimlane;fontStyle=1;align=center;verticalAlign=top;childLayout=stackLayout;horizontal=1;startSize=26;horizontalStack=0;resizeParent=1;resizeParentMax=0;resizeLast=0;collapsible=1;marginBottom=0;fillColor=#ffe6cc;strokeColor=#d79b00;" vertex="1" parent="1">
          <mxGeometry x="300" y="50" width="200" height="286" as="geometry"/>
        </mxCell>
        <mxCell id="id_15" value="- id: int" style="text;strokeColor=none;fillColor=none;align=left;verticalAlign=top;spacingLeft=4;spacingRight=4;overflow=hidden;rotatable=0;points=[[0,0.5],[1,0.5]];portConstraint=eastwest;" vertex="1" parent="id_14">
          <mxGeometry y="26" width="200" height="20" as="geometry"/>
        </mxCell>
        <mxCell id="id_16" value="- category_id: int" style="text;strokeColor=none;fillColor=none;align=left;verticalAlign=top;spacingLeft=4;spacingRight=4;overflow=hidden;rotatable=0;points=[[0,0.5],[1,0.5]];portConstraint=eastwest;" vertex="1" parent="id_14">
          <mxGeometry y="46" width="200" height="20" as="geometry"/>
        </mxCell>
        <mxCell id="id_17" value="- name_uk: string" style="text;strokeColor=none;fillColor=none;align=left;verticalAlign=top;spacingLeft=4;spacingRight=4;overflow=hidden;rotatable=0;points=[[0,0.5],[1,0.5]];portConstraint=eastwest;" vertex="1" parent="id_14">
          <mxGeometry y="66" width="200" height="20" as="geometry"/>
        </mxCell>
        <mxCell id="id_18" value="- price: decimal" style="text;strokeColor=none;fillColor=none;align=left;verticalAlign=top;spacingLeft=4;spacingRight=4;overflow=hidden;rotatable=0;points=[[0,0.5],[1,0.5]];portConstraint=eastwest;" vertex="1" parent="id_14">
          <mxGeometry y="86" width="200" height="20" as="geometry"/>
        </mxCell>
        <mxCell id="id_19" value="- quantity: int" style="text;strokeColor=none;fillColor=none;align=left;verticalAlign=top;spacingLeft=4;spacingRight=4;overflow=hidden;rotatable=0;points=[[0,0.5],[1,0.5]];portConstraint=eastwest;" vertex="1" parent="id_14">
          <mxGeometry y="106" width="200" height="20" as="geometry"/>
        </mxCell>
        <mxCell id="id_20" value="- images: array" style="text;strokeColor=none;fillColor=none;align=left;verticalAlign=top;spacingLeft=4;spacingRight=4;overflow=hidden;rotatable=0;points=[[0,0.5],[1,0.5]];portConstraint=eastwest;" vertex="1" parent="id_14">
          <mxGeometry y="126" width="200" height="20" as="geometry"/>
        </mxCell>
        <mxCell id="id_21" value="" style="line;strokeWidth=1;fillColor=none;align=left;verticalAlign=middle;spacingTop=-1;spacingLeft=3;spacingRight=3;rotatable=0;labelPosition=right;points=[];portConstraint=eastwest;" vertex="1" parent="id_14">
          <mxGeometry y="146" width="200" height="8" as="geometry"/>
        </mxCell>
        <mxCell id="id_22" value="+ create(): boolean" style="text;strokeColor=none;fillColor=none;align=left;verticalAlign=top;spacingLeft=4;spacingRight=4;overflow=hidden;rotatable=0;points=[[0,0.5],[1,0.5]];portConstraint=eastwest;" vertex="1" parent="id_14">
          <mxGeometry y="154" width="200" height="20" as="geometry"/>
        </mxCell>
        <mxCell id="id_23" value="+ update(): boolean" style="text;strokeColor=none;fillColor=none;align=left;verticalAlign=top;spacingLeft=4;spacingRight=4;overflow=hidden;rotatable=0;points=[[0,0.5],[1,0.5]];portConstraint=eastwest;" vertex="1" parent="id_14">
          <mxGeometry y="174" width="200" height="20" as="geometry"/>
        </mxCell>
        <mxCell id="id_24" value="+ delete(): boolean" style="text;strokeColor=none;fillColor=none;align=left;verticalAlign=top;spacingLeft=4;spacingRight=4;overflow=hidden;rotatable=0;points=[[0,0.5],[1,0.5]];portConstraint=eastwest;" vertex="1" parent="id_14">
          <mxGeometry y="194" width="200" height="20" as="geometry"/>
        </mxCell>
        <mxCell id="id_25" value="+ getCategory(): Category" style="text;strokeColor=none;fillColor=none;align=left;verticalAlign=top;spacingLeft=4;spacingRight=4;overflow=hidden;rotatable=0;points=[[0,0.5],[1,0.5]];portConstraint=eastwest;" vertex="1" parent="id_14">
          <mxGeometry y="214" width="200" height="20" as="geometry"/>
        </mxCell>
        <mxCell id="id_26" value="+ isInStock(): boolean" style="text;strokeColor=none;fillColor=none;align=left;verticalAlign=top;spacingLeft=4;spacingRight=4;overflow=hidden;rotatable=0;points=[[0,0.5],[1,0.5]];portConstraint=eastwest;" vertex="1" parent="id_14">
          <mxGeometry y="234" width="200" height="20" as="geometry"/>
        </mxCell>
        <mxCell id="id_27" value="+ getMainImage(): string" style="text;strokeColor=none;fillColor=none;align=left;verticalAlign=top;spacingLeft=4;spacingRight=4;overflow=hidden;rotatable=0;points=[[0,0.5],[1,0.5]];portConstraint=eastwest;" vertex="1" parent="id_14">
          <mxGeometry y="254" width="200" height="20" as="geometry"/>
        </mxCell>
        <mxCell id="id_28" value="places orders" style="endArrow=open;endFill=1;endSize=12;html=1;rounded=0;" edge="1" parent="1" source="id_2" target="id_14">
          <mxGeometry width="160" relative="1" as="geometry">
            <mxPoint x="250" y="150" as="sourcePoint"/>
            <mxPoint x="300" y="150" as="targetPoint"/>
          </mxGeometry>
        </mxCell>

      </root>
    </mxGraphModel>
  </diagram>
  <diagram id="sequence" name="Sequence Diagram">
    <mxGraphModel dx="1422" dy="827" grid="1" gridSize="10" guides="1" tooltips="1" connect="1" arrows="1" fold="1" page="1" pageScale="1" pageWidth="1169" pageHeight="827" math="0" shadow="0">
      <root>
        <mxCell id="0"/>
        <mxCell id="1" parent="0"/>
        <mxCell id="id_2" value="Користувач" style="shape=umlLifeline;perimeter=lifelinePerimeter;whiteSpace=wrap;html=1;container=1;collapsible=0;recursiveResize=0;outlineConnect=0;fillColor=#dae8fc;strokeColor=#6c8ebf;" vertex="1" parent="1">
          <mxGeometry x="80" y="80" width="100" height="600" as="geometry"/>
        </mxCell>
        <mxCell id="id_3" value="Веб-браузер" style="shape=umlLifeline;perimeter=lifelinePerimeter;whiteSpace=wrap;html=1;container=1;collapsible=0;recursiveResize=0;outlineConnect=0;fillColor=#dae8fc;strokeColor=#6c8ebf;" vertex="1" parent="1">
          <mxGeometry x="230" y="80" width="100" height="600" as="geometry"/>
        </mxCell>
        <mxCell id="id_4" value="CartController" style="shape=umlLifeline;perimeter=lifelinePerimeter;whiteSpace=wrap;html=1;container=1;collapsible=0;recursiveResize=0;outlineConnect=0;fillColor=#dae8fc;strokeColor=#6c8ebf;" vertex="1" parent="1">
          <mxGeometry x="380" y="80" width="100" height="600" as="geometry"/>
        </mxCell>
        <mxCell id="id_5" value="Product Model" style="shape=umlLifeline;perimeter=lifelinePerimeter;whiteSpace=wrap;html=1;container=1;collapsible=0;recursiveResize=0;outlineConnect=0;fillColor=#dae8fc;strokeColor=#6c8ebf;" vertex="1" parent="1">
          <mxGeometry x="530" y="80" width="100" height="600" as="geometry"/>
        </mxCell>
        <mxCell id="id_6" value="База даних" style="shape=umlLifeline;perimeter=lifelinePerimeter;whiteSpace=wrap;html=1;container=1;collapsible=0;recursiveResize=0;outlineConnect=0;fillColor=#dae8fc;strokeColor=#6c8ebf;" vertex="1" parent="1">
          <mxGeometry x="680" y="80" width="100" height="600" as="geometry"/>
        </mxCell>
        <mxCell id="id_7" value="Натискає &quot;Додати в кошик&quot;" style="html=1;verticalAlign=bottom;endArrow=block;rounded=0;" edge="1" parent="1">
          <mxGeometry width="80" relative="1" as="geometry">
            <mxPoint x="130" y="150" as="sourcePoint"/>
            <mxPoint x="280" y="150" as="targetPoint"/>
          </mxGeometry>
        </mxCell>
        <mxCell id="id_8" value="POST /cart/add" style="html=1;verticalAlign=bottom;endArrow=block;rounded=0;" edge="1" parent="1">
          <mxGeometry width="80" relative="1" as="geometry">
            <mxPoint x="280" y="200" as="sourcePoint"/>
            <mxPoint x="430" y="200" as="targetPoint"/>
          </mxGeometry>
        </mxCell>
        <mxCell id="id_9" value="Валідація запиту" style="html=1;verticalAlign=bottom;endArrow=block;rounded=0;" edge="1" parent="1">
          <mxGeometry width="80" relative="1" as="geometry">
            <mxPoint x="430" y="230" as="sourcePoint"/>
            <mxPoint x="430" y="230" as="targetPoint"/>
          </mxGeometry>
        </mxCell>
        <mxCell id="id_10" value="findOrFail(product_id)" style="html=1;verticalAlign=bottom;endArrow=block;rounded=0;" edge="1" parent="1">
          <mxGeometry width="80" relative="1" as="geometry">
            <mxPoint x="430" y="260" as="sourcePoint"/>
            <mxPoint x="580" y="260" as="targetPoint"/>
          </mxGeometry>
        </mxCell>
        <mxCell id="id_11" value="SELECT * FROM products" style="html=1;verticalAlign=bottom;endArrow=block;rounded=0;" edge="1" parent="1">
          <mxGeometry width="80" relative="1" as="geometry">
            <mxPoint x="580" y="290" as="sourcePoint"/>
            <mxPoint x="730" y="290" as="targetPoint"/>
          </mxGeometry>
        </mxCell>
        <mxCell id="id_12" value="Дані про товар" style="html=1;verticalAlign=bottom;endArrow=block;rounded=0;dashed=1;dashPattern=1 3;" edge="1" parent="1">
          <mxGeometry width="80" relative="1" as="geometry">
            <mxPoint x="730" y="320" as="sourcePoint"/>
            <mxPoint x="580" y="320" as="targetPoint"/>
          </mxGeometry>
        </mxCell>
        <mxCell id="id_13" value="Об&#39;єкт Product" style="html=1;verticalAlign=bottom;endArrow=block;rounded=0;dashed=1;dashPattern=1 3;" edge="1" parent="1">
          <mxGeometry width="80" relative="1" as="geometry">
            <mxPoint x="580" y="350" as="sourcePoint"/>
            <mxPoint x="430" y="350" as="targetPoint"/>
          </mxGeometry>
        </mxCell>
        <mxCell id="id_14" value="Перевірка наявності" style="html=1;verticalAlign=bottom;endArrow=block;rounded=0;" edge="1" parent="1">
          <mxGeometry width="80" relative="1" as="geometry">
            <mxPoint x="430" y="380" as="sourcePoint"/>
            <mxPoint x="580" y="380" as="targetPoint"/>
          </mxGeometry>
        </mxCell>
        <mxCell id="id_15" value="JSON response" style="html=1;verticalAlign=bottom;endArrow=block;rounded=0;dashed=1;dashPattern=1 3;" edge="1" parent="1">
          <mxGeometry width="80" relative="1" as="geometry">
            <mxPoint x="430" y="450" as="sourcePoint"/>
            <mxPoint x="280" y="450" as="targetPoint"/>
          </mxGeometry>
        </mxCell>
        <mxCell id="id_16" value="Оновлення UI" style="html=1;verticalAlign=bottom;endArrow=block;rounded=0;" edge="1" parent="1">
          <mxGeometry width="80" relative="1" as="geometry">
            <mxPoint x="280" y="480" as="sourcePoint"/>
            <mxPoint x="130" y="480" as="targetPoint"/>
          </mxGeometry>
        </mxCell>
        <mxCell id="id_17" value="" style="html=1;points=[];perimeter=orthogonalPerimeter;fillColor=#fff2cc;strokeColor=#d6b656;" vertex="1" parent="id_3">
          <mxGeometry x="45" y="120" width="10" height="300" as="geometry"/>
        </mxCell>
        <mxCell id="id_18" value="" style="html=1;points=[];perimeter=orthogonalPerimeter;fillColor=#fff2cc;strokeColor=#d6b656;" vertex="1" parent="id_4">
          <mxGeometry x="45" y="170" width="10" height="300" as="geometry"/>
        </mxCell>
        <mxCell id="id_19" value="" style="html=1;points=[];perimeter=orthogonalPerimeter;fillColor=#fff2cc;strokeColor=#d6b656;" vertex="1" parent="id_5">
          <mxGeometry x="45" y="220" width="10" height="300" as="geometry"/>
        </mxCell>
        <mxCell id="id_20" value="" style="html=1;points=[];perimeter=orthogonalPerimeter;fillColor=#fff2cc;strokeColor=#d6b656;" vertex="1" parent="id_6">
          <mxGeometry x="45" y="270" width="10" height="300" as="geometry"/>
        </mxCell>

      </root>
    </mxGraphModel>
  </diagram>
  <diagram id="bpmn" name="BPMN Diagram">
    <mxGraphModel dx="1422" dy="827" grid="1" gridSize="10" guides="1" tooltips="1" connect="1" arrows="1" fold="1" page="1" pageScale="1" pageWidth="1169" pageHeight="827" math="0" shadow="0">
      <root>
        <mxCell id="0"/>
        <mxCell id="1" parent="0"/>
        <mxCell id="id_2" value="Початок\nзамовлення" style="ellipse;whiteSpace=wrap;html=1;fillColor=#d5e8d4;strokeColor=#82b366;fontStyle=1;" vertex="1" parent="1">
          <mxGeometry x="50" y="180" width="80" height="60" as="geometry"/>
        </mxCell>
        <mxCell id="id_3" value="Користувач" style="swimlane;html=1;childLayout=stackLayout;resizeParent=1;resizeParentMax=0;startSize=20;fillColor=#dae8fc;strokeColor=#6c8ebf;" vertex="1" parent="1">
          <mxGeometry x="30" y="120" width="1000" height="120" as="geometry"/>
        </mxCell>
        <mxCell id="id_4" value="Система ТехноСвіт" style="swimlane;html=1;childLayout=stackLayout;resizeParent=1;resizeParentMax=0;startSize=20;fillColor=#fff2cc;strokeColor=#d6b656;" vertex="1" parent="1">
          <mxGeometry x="30" y="240" width="1000" height="140" as="geometry"/>
        </mxCell>
        <mxCell id="id_5" value="Платіжна система" style="swimlane;html=1;childLayout=stackLayout;resizeParent=1;resizeParentMax=0;startSize=20;fillColor=#f8cecc;strokeColor=#b85450;" vertex="1" parent="1">
          <mxGeometry x="30" y="380" width="1000" height="100" as="geometry"/>
        </mxCell>
        <mxCell id="id_6" value="Додавання\nтоварів в кошик" style="rounded=1;whiteSpace=wrap;html=1;fillColor=#dae8fc;strokeColor=#6c8ebf;" vertex="1" parent="1">
          <mxGeometry x="180" y="160" width="100" height="60" as="geometry"/>
        </mxCell>
        <mxCell id="id_7" value="Заповнення\nданих замовлення" style="rounded=1;whiteSpace=wrap;html=1;fillColor=#dae8fc;strokeColor=#6c8ebf;" vertex="1" parent="1">
          <mxGeometry x="320" y="160" width="100" height="60" as="geometry"/>
        </mxCell>
        <mxCell id="id_8" value="Перевірка\nналичности\nтоварів" style="rounded=1;whiteSpace=wrap;html=1;fillColor=#fff2cc;strokeColor=#d6b656;" vertex="1" parent="1">
          <mxGeometry x="460" y="280" width="100" height="60" as="geometry"/>
        </mxCell>
        <mxCell id="id_9" value="Товари\nв наличності?" style="rhombus;whiteSpace=wrap;html=1;fillColor=#e1d5e7;strokeColor=#9673a6;" vertex="1" parent="1">
          <mxGeometry x="600" y="280" width="100" height="60" as="geometry"/>
        </mxCell>
        <mxCell id="id_10" value="Розрахунок\nвартості\nзамовлення" style="rounded=1;whiteSpace=wrap;html=1;fillColor=#fff2cc;strokeColor=#d6b656;" vertex="1" parent="1">
          <mxGeometry x="740" y="280" width="100" height="60" as="geometry"/>
        </mxCell>
        <mxCell id="id_11" value="Створення\nзамовлення\nв БД" style="rounded=1;whiteSpace=wrap;html=1;fillColor=#fff2cc;strokeColor=#d6b656;" vertex="1" parent="1">
          <mxGeometry x="880" y="280" width="100" height="60" as="geometry"/>
        </mxCell>
        <mxCell id="id_12" value="Повідомлення\nпро відсутність\nтоварів" style="rounded=1;whiteSpace=wrap;html=1;fillColor=#f8cecc;strokeColor=#b85450;" vertex="1" parent="1">
          <mxGeometry x="600" y="200" width="100" height="60" as="geometry"/>
        </mxCell>
        <mxCell id="id_13" value="Обробка\nплатежу" style="rounded=1;whiteSpace=wrap;html=1;fillColor=#f8cecc;strokeColor=#b85450;" vertex="1" parent="1">
          <mxGeometry x="460" y="410" width="100" height="60" as="geometry"/>
        </mxCell>
        <mxCell id="id_14" value="Підтвердження\nоплати" style="rounded=1;whiteSpace=wrap;html=1;fillColor=#f8cecc;strokeColor=#b85450;" vertex="1" parent="1">
          <mxGeometry x="600" y="410" width="100" height="60" as="geometry"/>
        </mxCell>
        <mxCell id="id_15" value="Email\nпідтвердження" style="rounded=1;whiteSpace=wrap;html=1;fillColor=#fff2cc;strokeColor=#d6b656;" vertex="1" parent="1">
          <mxGeometry x="800" y="160" width="80" height="60" as="geometry"/>
        </mxCell>
        <mxCell id="id_16" value="Завершення\nзамовлення" style="ellipse;whiteSpace=wrap;html=1;fillColor=#d5e8d4;strokeColor=#82b366;fontStyle=1;" vertex="1" parent="1">
          <mxGeometry x="940" y="180" width="80" height="60" as="geometry"/>
        </mxCell>
        <mxCell id="id_17" value="" style="endArrow=classic;html=1;rounded=0;strokeWidth=2;" edge="1" parent="1" source="id_2" target="id_6">
          <mxGeometry width="50" height="50" relative="1" as="geometry"/>
        </mxCell>
        <mxCell id="id_18" value="" style="endArrow=classic;html=1;rounded=0;strokeWidth=2;" edge="1" parent="1" source="id_6" target="id_7">
          <mxGeometry width="50" height="50" relative="1" as="geometry"/>
        </mxCell>
        <mxCell id="id_19" value="Підтвердження\nзамовлення" style="endArrow=classic;html=1;rounded=0;strokeWidth=2;" edge="1" parent="1" source="id_7" target="id_8">
          <mxGeometry width="50" height="50" relative="1" as="geometry"/>
        </mxCell>
        <mxCell id="id_20" value="" style="endArrow=classic;html=1;rounded=0;strokeWidth=2;" edge="1" parent="1" source="id_8" target="id_9">
          <mxGeometry width="50" height="50" relative="1" as="geometry"/>
        </mxCell>
        <mxCell id="id_21" value="Так" style="endArrow=classic;html=1;rounded=0;strokeWidth=2;" edge="1" parent="1" source="id_9" target="id_10">
          <mxGeometry width="50" height="50" relative="1" as="geometry"/>
        </mxCell>
        <mxCell id="id_22" value="Ні" style="endArrow=classic;html=1;rounded=0;strokeWidth=2;" edge="1" parent="1" source="id_9" target="id_12">
          <mxGeometry width="50" height="50" relative="1" as="geometry"/>
        </mxCell>
        <mxCell id="id_23" value="" style="endArrow=classic;html=1;rounded=0;strokeWidth=2;" edge="1" parent="1" source="id_10" target="id_13">
          <mxGeometry width="50" height="50" relative="1" as="geometry"/>
        </mxCell>
        <mxCell id="id_24" value="" style="endArrow=classic;html=1;rounded=0;strokeWidth=2;" edge="1" parent="1" source="id_13" target="id_14">
          <mxGeometry width="50" height="50" relative="1" as="geometry"/>
        </mxCell>
        <mxCell id="id_25" value="" style="endArrow=classic;html=1;rounded=0;strokeWidth=2;" edge="1" parent="1" source="id_14" target="id_11">
          <mxGeometry width="50" height="50" relative="1" as="geometry"/>
        </mxCell>
        <mxCell id="id_26" value="" style="endArrow=classic;html=1;rounded=0;strokeWidth=2;" edge="1" parent="1" source="id_11" target="id_15">
          <mxGeometry width="50" height="50" relative="1" as="geometry"/>
        </mxCell>
        <mxCell id="id_27" value="" style="endArrow=classic;html=1;rounded=0;strokeWidth=2;" edge="1" parent="1" source="id_15" target="id_16">
          <mxGeometry width="50" height="50" relative="1" as="geometry"/>
        </mxCell>
        <mxCell id="id_28" value="Перенаправлення\nна платіж" style="endArrow=classic;html=1;rounded=0;dashed=1;dashPattern=5 5;strokeColor=#666666;" edge="1" parent="1" source="id_7" target="id_13">
          <mxGeometry width="50" height="50" relative="1" as="geometry"/>
        </mxCell>
        <mxCell id="id_29" value="Сповіщення\nкористувача" style="endArrow=classic;html=1;rounded=0;dashed=1;dashPattern=5 5;strokeColor=#666666;" edge="1" parent="1" source="id_15" target="id_7">
          <mxGeometry width="50" height="50" relative="1" as="geometry"/>
        </mxCell>

      </root>
    </mxGraphModel>
  </diagram>
  <diagram id="dfd" name="DFD Diagram">
    <mxGraphModel dx="1422" dy="827" grid="1" gridSize="10" guides="1" tooltips="1" connect="1" arrows="1" fold="1" page="1" pageScale="1" pageWidth="1169" pageHeight="827" math="0" shadow="0">
      <root>
        <mxCell id="0"/>
        <mxCell id="1" parent="0"/>
        <mxCell id="id_2" value="0\n\nСистема\нінтернет-магазину\нТехноСвіт" style="ellipse;whiteSpace=wrap;html=1;fillColor=#e1d5e7;strokeColor=#9673a6;fontStyle=1;fontSize=12;" vertex="1" parent="1">
          <mxGeometry x="400" y="300" width="160" height="120" as="geometry"/>
        </mxCell>
        <mxCell id="id_3" value="Клієнт" style="rounded=0;whiteSpace=wrap;html=1;fillColor=#dae8fc;strokeColor=#6c8ebf;fontStyle=1;" vertex="1" parent="1">
          <mxGeometry x="100" y="120" width="100" height="60" as="geometry"/>
        </mxCell>
        <mxCell id="id_4" value="Адміністратор" style="rounded=0;whiteSpace=wrap;html=1;fillColor=#dae8fc;strokeColor=#6c8ebf;fontStyle=1;" vertex="1" parent="1">
          <mxGeometry x="700" y="120" width="100" height="60" as="geometry"/>
        </mxCell>
        <mxCell id="id_5" value="Постачальник" style="rounded=0;whiteSpace=wrap;html=1;fillColor=#dae8fc;strokeColor=#6c8ebf;fontStyle=1;" vertex="1" parent="1">
          <mxGeometry x="100" y="480" width="100" height="60" as="geometry"/>
        </mxCell>
        <mxCell id="id_6" value="Платіжна\nсистема" style="rounded=0;whiteSpace=wrap;html=1;fillColor=#dae8fc;strokeColor=#6c8ebf;fontStyle=1;" vertex="1" parent="1">
          <mxGeometry x="700" y="480" width="100" height="60" as="geometry"/>
        </mxCell>
        <mxCell id="id_7" value="Email\nсервіс" style="rounded=0;whiteSpace=wrap;html=1;fillColor=#dae8fc;strokeColor=#6c8ebf;fontStyle=1;" vertex="1" parent="1">
          <mxGeometry x="400" y="80" width="100" height="60" as="geometry"/>
        </mxCell>
        <mxCell id="id_8" value="Служба\nдоставки" style="rounded=0;whiteSpace=wrap;html=1;fillColor=#dae8fc;strokeColor=#6c8ebf;fontStyle=1;" vertex="1" parent="1">
          <mxGeometry x="400" y="540" width="100" height="60" as="geometry"/>
        </mxCell>
        <mxCell id="id_9" value="D1: Користувачі" style="shape=partialRectangle;whiteSpace=wrap;html=1;left=0;right=0;fillColor=#f5f5f5;strokeColor=#666666;fontStyle=1;" vertex="1" parent="1">
          <mxGeometry x="80" y="300" width="120" height="40" as="geometry"/>
        </mxCell>
        <mxCell id="id_10" value="D2: Товари" style="shape=partialRectangle;whiteSpace=wrap;html=1;left=0;right=0;fillColor=#f5f5f5;strokeColor=#666666;fontStyle=1;" vertex="1" parent="1">
          <mxGeometry x="200" y="220" width="120" height="40" as="geometry"/>
        </mxCell>
        <mxCell id="id_11" value="D3: Замовлення" style="shape=partialRectangle;whiteSpace=wrap;html=1;left=0;right=0;fillColor=#f5f5f5;strokeColor=#666666;fontStyle=1;" vertex="1" parent="1">
          <mxGeometry x="200" y="380" width="120" height="40" as="geometry"/>
        </mxCell>
        <mxCell id="id_12" value="D4: Категорії" style="shape=partialRectangle;whiteSpace=wrap;html=1;left=0;right=0;fillColor=#f5f5f5;strokeColor=#666666;fontStyle=1;" vertex="1" parent="1">
          <mxGeometry x="600" y="220" width="120" height="40" as="geometry"/>
        </mxCell>
        <mxCell id="id_13" value="D5: Платежі" style="shape=partialRectangle;whiteSpace=wrap;html=1;left=0;right=0;fillColor=#f5f5f5;strokeColor=#666666;fontStyle=1;" vertex="1" parent="1">
          <mxGeometry x="600" y="380" width="120" height="40" as="geometry"/>
        </mxCell>
        <mxCell id="id_14" value="D6: Звіти" style="shape=partialRectangle;whiteSpace=wrap;html=1;left=0;right=0;fillColor=#f5f5f5;strokeColor=#666666;fontStyle=1;" vertex="1" parent="1">
          <mxGeometry x="720" y="300" width="120" height="40" as="geometry"/>
        </mxCell>
        <mxCell id="id_15" value="Запити на товари\nДані реєстрації\nЗамовлення" style="endArrow=classic;html=1;rounded=0;strokeWidth=1.5;fontSize=10;" edge="1" parent="1" source="id_3" target="id_2">
          <mxGeometry width="50" height="50" relative="1" as="geometry"/>
        </mxCell>
        <mxCell id="id_16" value="Каталог товарів\nПідтвердження\nСтатус замовлення" style="endArrow=classic;html=1;rounded=0;strokeWidth=1.5;fontSize=10;" edge="1" parent="1" source="id_2" target="id_3">
          <mxGeometry width="50" height="50" relative="1" as="geometry"/>
        </mxCell>
        <mxCell id="id_17" value="Управління товарами\nУправління категоріями\nПерегляд звітів" style="endArrow=classic;html=1;rounded=0;strokeWidth=1.5;fontSize=10;" edge="1" parent="1" source="id_4" target="id_2">
          <mxGeometry width="50" height="50" relative="1" as="geometry"/>
        </mxCell>
        <mxCell id="id_18" value="Звіти\nСтатистика\nІнформація про замовлення" style="endArrow=classic;html=1;rounded=0;strokeWidth=1.5;fontSize=10;" edge="1" parent="1" source="id_2" target="id_4">
          <mxGeometry width="50" height="50" relative="1" as="geometry"/>
        </mxCell>
        <mxCell id="id_19" value="Інформація про товари\nОновлення цін\nНаявність товарів" style="endArrow=classic;html=1;rounded=0;strokeWidth=1.5;fontSize=10;" edge="1" parent="1" source="id_5" target="id_2">
          <mxGeometry width="50" height="50" relative="1" as="geometry"/>
        </mxCell>
        <mxCell id="id_20" value="Замовлення поповнення\nЗвіти про продажі" style="endArrow=classic;html=1;rounded=0;strokeWidth=1.5;fontSize=10;" edge="1" parent="1" source="id_2" target="id_5">
          <mxGeometry width="50" height="50" relative="1" as="geometry"/>
        </mxCell>
        <mxCell id="id_21" value="Підтвердження платежу\nСтатус транзакції" style="endArrow=classic;html=1;rounded=0;strokeWidth=1.5;fontSize=10;" edge="1" parent="1" source="id_6" target="id_2">
          <mxGeometry width="50" height="50" relative="1" as="geometry"/>
        </mxCell>
        <mxCell id="id_22" value="Дані для оплати\nСума до списання" style="endArrow=classic;html=1;rounded=0;strokeWidth=1.5;fontSize=10;" edge="1" parent="1" source="id_2" target="id_6">
          <mxGeometry width="50" height="50" relative="1" as="geometry"/>
        </mxCell>
        <mxCell id="id_23" value="Статус відправки\nПідтвердження доставки" style="endArrow=classic;html=1;rounded=0;strokeWidth=1.5;fontSize=10;" edge="1" parent="1" source="id_7" target="id_2">
          <mxGeometry width="50" height="50" relative="1" as="geometry"/>
        </mxCell>
        <mxCell id="id_24" value="Email повідомлення\nІнформація про замовлення" style="endArrow=classic;html=1;rounded=0;strokeWidth=1.5;fontSize=10;" edge="1" parent="1" source="id_2" target="id_7">
          <mxGeometry width="50" height="50" relative="1" as="geometry"/>
        </mxCell>
        <mxCell id="id_25" value="Статус доставки\nПідтвердження отримання" style="endArrow=classic;html=1;rounded=0;strokeWidth=1.5;fontSize=10;" edge="1" parent="1" source="id_8" target="id_2">
          <mxGeometry width="50" height="50" relative="1" as="geometry"/>
        </mxCell>
        <mxCell id="id_26" value="Дані для доставки\nАдреса отримувача" style="endArrow=classic;html=1;rounded=0;strokeWidth=1.5;fontSize=10;" edge="1" parent="1" source="id_2" target="id_8">
          <mxGeometry width="50" height="50" relative="1" as="geometry"/>
        </mxCell>
        <mxCell id="id_27" value="Дані користувачів" style="endArrow=classic;html=1;rounded=0;strokeWidth=1;fontSize=9;strokeColor=#666666;" edge="1" parent="1" source="id_2" target="id_9">
          <mxGeometry width="50" height="50" relative="1" as="geometry"/>
        </mxCell>
        <mxCell id="id_28" value="Інформація\nкористувачів" style="endArrow=classic;html=1;rounded=0;strokeWidth=1;fontSize=9;strokeColor=#666666;" edge="1" parent="1" source="id_9" target="id_2">
          <mxGeometry width="50" height="50" relative="1" as="geometry"/>
        </mxCell>
        <mxCell id="id_29" value="Дані товарів" style="endArrow=classic;html=1;rounded=0;strokeWidth=1;fontSize=9;strokeColor=#666666;" edge="1" parent="1" source="id_2" target="id_10">
          <mxGeometry width="50" height="50" relative="1" as="geometry"/>
        </mxCell>
        <mxCell id="id_30" value="Каталог товарів" style="endArrow=classic;html=1;rounded=0;strokeWidth=1;fontSize=9;strokeColor=#666666;" edge="1" parent="1" source="id_10" target="id_2">
          <mxGeometry width="50" height="50" relative="1" as="geometry"/>
        </mxCell>
        <mxCell id="id_31" value="Дані замовлень" style="endArrow=classic;html=1;rounded=0;strokeWidth=1;fontSize=9;strokeColor=#666666;" edge="1" parent="1" source="id_2" target="id_11">
          <mxGeometry width="50" height="50" relative="1" as="geometry"/>
        </mxCell>
        <mxCell id="id_32" value="Історія замовлень" style="endArrow=classic;html=1;rounded=0;strokeWidth=1;fontSize=9;strokeColor=#666666;" edge="1" parent="1" source="id_11" target="id_2">
          <mxGeometry width="50" height="50" relative="1" as="geometry"/>
        </mxCell>
        <mxCell id="id_33" value="Дані категорій" style="endArrow=classic;html=1;rounded=0;strokeWidth=1;fontSize=9;strokeColor=#666666;" edge="1" parent="1" source="id_2" target="id_12">
          <mxGeometry width="50" height="50" relative="1" as="geometry"/>
        </mxCell>
        <mxCell id="id_34" value="Структура категорій" style="endArrow=classic;html=1;rounded=0;strokeWidth=1;fontSize=9;strokeColor=#666666;" edge="1" parent="1" source="id_12" target="id_2">
          <mxGeometry width="50" height="50" relative="1" as="geometry"/>
        </mxCell>
        <mxCell id="id_35" value="Дані платежів" style="endArrow=classic;html=1;rounded=0;strokeWidth=1;fontSize=9;strokeColor=#666666;" edge="1" parent="1" source="id_2" target="id_13">
          <mxGeometry width="50" height="50" relative="1" as="geometry"/>
        </mxCell>
        <mxCell id="id_36" value="Історія платежів" style="endArrow=classic;html=1;rounded=0;strokeWidth=1;fontSize=9;strokeColor=#666666;" edge="1" parent="1" source="id_13" target="id_2">
          <mxGeometry width="50" height="50" relative="1" as="geometry"/>
        </mxCell>
        <mxCell id="id_37" value="Аналітичні дані" style="endArrow=classic;html=1;rounded=0;strokeWidth=1;fontSize=9;strokeColor=#666666;" edge="1" parent="1" source="id_2" target="id_14">
          <mxGeometry width="50" height="50" relative="1" as="geometry"/>
        </mxCell>
        <mxCell id="id_38" value="Звіти та статистика" style="endArrow=classic;html=1;rounded=0;strokeWidth=1;fontSize=9;strokeColor=#666666;" edge="1" parent="1" source="id_14" target="id_2">
          <mxGeometry width="50" height="50" relative="1" as="geometry"/>
        </mxCell>

      </root>
    </mxGraphModel>
  </diagram>
  <diagram id="activity" name="Activity Diagram">
    <mxGraphModel dx="1422" dy="827" grid="1" gridSize="10" guides="1" tooltips="1" connect="1" arrows="1" fold="1" page="1" pageScale="1" pageWidth="1169" pageHeight="827" math="0" shadow="0">
      <root>
        <mxCell id="0"/>
        <mxCell id="1" parent="0"/>
        <mxCell id="id_2" value="" style="ellipse;whiteSpace=wrap;html=1;fillColor=#000000;strokeColor=#000000;" vertex="1" parent="1">
          <mxGeometry x="400" y="50" width="20" height="20" as="geometry"/>
        </mxCell>
        <mxCell id="id_3" value="Вибір товарів\nз каталогу" style="rounded=1;whiteSpace=wrap;html=1;fillColor=#ffe6cc;strokeColor=#d79b00;" vertex="1" parent="1">
          <mxGeometry x="320" y="120" width="120" height="60" as="geometry"/>
        </mxCell>
        <mxCell id="id_4" value="Додавання товарів\nв кошик" style="rounded=1;whiteSpace=wrap;html=1;fillColor=#ffe6cc;strokeColor=#d79b00;" vertex="1" parent="1">
          <mxGeometry x="320" y="200" width="120" height="60" as="geometry"/>
        </mxCell>
        <mxCell id="id_5" value="Перегляд кошику" style="rounded=1;whiteSpace=wrap;html=1;fillColor=#ffe6cc;strokeColor=#d79b00;" vertex="1" parent="1">
          <mxGeometry x="320" y="280" width="120" height="60" as="geometry"/>
        </mxCell>
        <mxCell id="id_6" value="Заповнення даних\nзамовлення" style="rounded=1;whiteSpace=wrap;html=1;fillColor=#ffe6cc;strokeColor=#d79b00;" vertex="1" parent="1">
          <mxGeometry x="320" y="360" width="120" height="60" as="geometry"/>
        </mxCell>
        <mxCell id="id_7" value="Вибір способу\nоплати" style="rounded=1;whiteSpace=wrap;html=1;fillColor=#ffe6cc;strokeColor=#d79b00;" vertex="1" parent="1">
          <mxGeometry x="320" y="440" width="120" height="60" as="geometry"/>
        </mxCell>
        <mxCell id="id_8" value="Оплата\nонлайн" style="rounded=1;whiteSpace=wrap;html=1;fillColor=#ffe6cc;strokeColor=#d79b00;" vertex="1" parent="1">
          <mxGeometry x="120" y="520" width="120" height="60" as="geometry"/>
        </mxCell>
        <mxCell id="id_9" value="Оплата\nпри отриманні" style="rounded=1;whiteSpace=wrap;html=1;fillColor=#ffe6cc;strokeColor=#d79b00;" vertex="1" parent="1">
          <mxGeometry x="520" y="520" width="120" height="60" as="geometry"/>
        </mxCell>
        <mxCell id="id_10" value="Підтвердження\nзамовлення" style="rounded=1;whiteSpace=wrap;html=1;fillColor=#ffe6cc;strokeColor=#d79b00;" vertex="1" parent="1">
          <mxGeometry x="320" y="600" width="120" height="60" as="geometry"/>
        </mxCell>
        <mxCell id="id_11" value="Відправка\nповідомлення" style="rounded=1;whiteSpace=wrap;html=1;fillColor=#ffe6cc;strokeColor=#d79b00;" vertex="1" parent="1">
          <mxGeometry x="320" y="680" width="120" height="60" as="geometry"/>
        </mxCell>
        <mxCell id="id_12" value="Спосіб\nоплати?" style="rhombus;whiteSpace=wrap;html=1;fillColor=#fff2cc;strokeColor=#d6b656;" vertex="1" parent="1">
          <mxGeometry x="340" y="480" width="80" height="80" as="geometry"/>
        </mxCell>
        <mxCell id="id_13" value="" style="rhombus;whiteSpace=wrap;html=1;fillColor=#000000;strokeColor=#000000;" vertex="1" parent="1">
          <mxGeometry x="375" y="555" width="10" height="10" as="geometry"/>
        </mxCell>
        <mxCell id="id_14" value="" style="ellipse;whiteSpace=wrap;html=1;fillColor=#000000;strokeColor=#000000;" vertex="1" parent="1">
          <mxGeometry x="395" y="750" width="20" height="20" as="geometry"/>
        </mxCell>
        <mxCell id="id_15" value="" style="ellipse;whiteSpace=wrap;html=1;fillColor=none;strokeColor=#000000;strokeWidth=3;" vertex="1" parent="1">
          <mxGeometry x="390" y="745" width="30" height="30" as="geometry"/>
        </mxCell>
        <mxCell id="id_16" value="" style="endArrow=classic;html=1;rounded=0;strokeWidth=2;" edge="1" parent="1" source="id_2" target="id_3">
          <mxGeometry width="50" height="50" relative="1" as="geometry"/>
        </mxCell>
        <mxCell id="id_17" value="" style="endArrow=classic;html=1;rounded=0;strokeWidth=2;" edge="1" parent="1" source="id_3" target="id_4">
          <mxGeometry width="50" height="50" relative="1" as="geometry"/>
        </mxCell>
        <mxCell id="id_18" value="" style="endArrow=classic;html=1;rounded=0;strokeWidth=2;" edge="1" parent="1" source="id_4" target="id_5">
          <mxGeometry width="50" height="50" relative="1" as="geometry"/>
        </mxCell>
        <mxCell id="id_19" value="" style="endArrow=classic;html=1;rounded=0;strokeWidth=2;" edge="1" parent="1" source="id_5" target="id_6">
          <mxGeometry width="50" height="50" relative="1" as="geometry"/>
        </mxCell>
        <mxCell id="id_20" value="" style="endArrow=classic;html=1;rounded=0;strokeWidth=2;" edge="1" parent="1" source="id_6" target="id_7">
          <mxGeometry width="50" height="50" relative="1" as="geometry"/>
        </mxCell>
        <mxCell id="id_21" value="" style="endArrow=classic;html=1;rounded=0;strokeWidth=2;" edge="1" parent="1" source="id_7" target="id_12">
          <mxGeometry width="50" height="50" relative="1" as="geometry"/>
        </mxCell>
        <mxCell id="id_22" value="Онлайн" style="endArrow=classic;html=1;rounded=0;strokeWidth=2;" edge="1" parent="1" source="id_12" target="id_8">
          <mxGeometry width="50" height="50" relative="1" as="geometry"/>
        </mxCell>
        <mxCell id="id_23" value="При отриманні" style="endArrow=classic;html=1;rounded=0;strokeWidth=2;" edge="1" parent="1" source="id_12" target="id_9">
          <mxGeometry width="50" height="50" relative="1" as="geometry"/>
        </mxCell>
        <mxCell id="id_24" value="" style="endArrow=classic;html=1;rounded=0;strokeWidth=2;" edge="1" parent="1" source="id_8" target="id_13">
          <mxGeometry width="50" height="50" relative="1" as="geometry"/>
        </mxCell>
        <mxCell id="id_25" value="" style="endArrow=classic;html=1;rounded=0;strokeWidth=2;" edge="1" parent="1" source="id_9" target="id_13">
          <mxGeometry width="50" height="50" relative="1" as="geometry"/>
        </mxCell>
        <mxCell id="id_26" value="" style="endArrow=classic;html=1;rounded=0;strokeWidth=2;" edge="1" parent="1" source="id_13" target="id_10">
          <mxGeometry width="50" height="50" relative="1" as="geometry"/>
        </mxCell>
        <mxCell id="id_27" value="" style="endArrow=classic;html=1;rounded=0;strokeWidth=2;" edge="1" parent="1" source="id_10" target="id_11">
          <mxGeometry width="50" height="50" relative="1" as="geometry"/>
        </mxCell>
        <mxCell id="id_28" value="" style="endArrow=classic;html=1;rounded=0;strokeWidth=2;" edge="1" parent="1" source="id_11" target="id_14">
          <mxGeometry width="50" height="50" relative="1" as="geometry"/>
        </mxCell>

      </root>
    </mxGraphModel>
  </diagram>
  <diagram id="sadt" name="SADT Diagram">
    <mxGraphModel dx="1422" dy="827" grid="1" gridSize="10" guides="1" tooltips="1" connect="1" arrows="1" fold="1" page="1" pageScale="1" pageWidth="1169" pageHeight="827" math="0" shadow="0">
      <root>
        <mxCell id="0"/>
        <mxCell id="1" parent="0"/>
        <mxCell id="id_2" value="A0\n\nУправління\nінтернет-магазином\nТехноСвіт" style="rounded=0;whiteSpace=wrap;html=1;fillColor=#e1d5e7;strokeColor=#9673a6;fontStyle=1;fontSize=14;" vertex="1" parent="1">
          <mxGeometry x="400" y="300" width="200" height="100" as="geometry"/>
        </mxCell>
        <mxCell id="id_3" value="Запити клієнтів\nна товари" style="text;html=1;align=right;verticalAlign=middle;resizable=0;points=[];autosize=1;strokeColor=none;fillColor=none;" vertex="1" parent="1">
          <mxGeometry x="100" y="320" width="140" height="40" as="geometry"/>
        </mxCell>
        <mxCell id="id_5" value="" style="endArrow=classic;html=1;rounded=0;entryX=0;entryY=0.3;entryDx=0;entryDy=0;strokeWidth=2;" edge="1" parent="1" source="id_3" target="id_2">
          <mxGeometry width="50" height="50" relative="1" as="geometry"/>
        </mxCell>
        <mxCell id="id_4" value="Дані про товари\nвід постачальників" style="text;html=1;align=right;verticalAlign=middle;resizable=0;points=[];autosize=1;strokeColor=none;fillColor=none;" vertex="1" parent="1">
          <mxGeometry x="100" y="360" width="140" height="40" as="geometry"/>
        </mxCell>
        <mxCell id="id_6" value="" style="endArrow=classic;html=1;rounded=0;entryX=0;entryY=0.7;entryDx=0;entryDy=0;strokeWidth=2;" edge="1" parent="1" source="id_4" target="id_2">
          <mxGeometry width="50" height="50" relative="1" as="geometry"/>
        </mxCell>
        <mxCell id="id_7" value="Оброблені замовлення" style="text;html=1;align=left;verticalAlign=middle;resizable=0;points=[];autosize=1;strokeColor=none;fillColor=none;" vertex="1" parent="1">
          <mxGeometry x="700" y="320" width="140" height="40" as="geometry"/>
        </mxCell>
        <mxCell id="id_9" value="" style="endArrow=classic;html=1;rounded=0;exitX=1;exitY=0.3;exitDx=0;exitDy=0;strokeWidth=2;" edge="1" parent="1" source="id_2" target="id_7">
          <mxGeometry width="50" height="50" relative="1" as="geometry"/>
        </mxCell>
        <mxCell id="id_8" value="Звіти та аналітика" style="text;html=1;align=left;verticalAlign=middle;resizable=0;points=[];autosize=1;strokeColor=none;fillColor=none;" vertex="1" parent="1">
          <mxGeometry x="700" y="360" width="140" height="40" as="geometry"/>
        </mxCell>
        <mxCell id="id_10" value="" style="endArrow=classic;html=1;rounded=0;exitX=1;exitY=0.7;exitDx=0;exitDy=0;strokeWidth=2;" edge="1" parent="1" source="id_2" target="id_8">
          <mxGeometry width="50" height="50" relative="1" as="geometry"/>
        </mxCell>
        <mxCell id="id_11" value="Правила\nведення бізнесу" style="text;html=1;align=center;verticalAlign=bottom;resizable=0;points=[];autosize=1;strokeColor=none;fillColor=none;" vertex="1" parent="1">
          <mxGeometry x="450" y="200" width="80" height="40" as="geometry"/>
        </mxCell>
        <mxCell id="id_13" value="" style="endArrow=classic;html=1;rounded=0;entryX=0.25;entryY=0;entryDx=0;entryDy=0;strokeWidth=2;" edge="1" parent="1" source="id_11" target="id_2">
          <mxGeometry width="50" height="50" relative="1" as="geometry"/>
        </mxCell>
        <mxCell id="id_12" value="Політики\nбезпеки" style="text;html=1;align=center;verticalAlign=bottom;resizable=0;points=[];autosize=1;strokeColor=none;fillColor=none;" vertex="1" parent="1">
          <mxGeometry x="550" y="200" width="80" height="40" as="geometry"/>
        </mxCell>
        <mxCell id="id_14" value="" style="endArrow=classic;html=1;rounded=0;entryX=0.75;entryY=0;entryDx=0;entryDy=0;strokeWidth=2;" edge="1" parent="1" source="id_12" target="id_2">
          <mxGeometry width="50" height="50" relative="1" as="geometry"/>
        </mxCell>
        <mxCell id="id_15" value="Веб-сервер\nта БД" style="text;html=1;align=center;verticalAlign=top;resizable=0;points=[];autosize=1;strokeColor=none;fillColor=none;" vertex="1" parent="1">
          <mxGeometry x="420" y="480" width="80" height="40" as="geometry"/>
        </mxCell>
        <mxCell id="id_17" value="" style="endArrow=classic;html=1;rounded=0;exitX=0.25;exitY=1;exitDx=0;exitDy=0;strokeWidth=2;" edge="1" parent="1" source="id_2" target="id_15">
          <mxGeometry width="50" height="50" relative="1" as="geometry"/>
        </mxCell>
        <mxCell id="id_16" value="Персонал\nмагазину" style="text;html=1;align=center;verticalAlign=top;resizable=0;points=[];autosize=1;strokeColor=none;fillColor=none;" vertex="1" parent="1">
          <mxGeometry x="520" y="480" width="80" height="40" as="geometry"/>
        </mxCell>
        <mxCell id="id_18" value="" style="endArrow=classic;html=1;rounded=0;exitX=0.75;exitY=1;exitDx=0;exitDy=0;strokeWidth=2;" edge="1" parent="1" source="id_2" target="id_16">
          <mxGeometry width="50" height="50" relative="1" as="geometry"/>
        </mxCell>
        <mxCell id="id_19" value="SADT A-0: Контекстна діаграма системи ТехноСвіт" style="text;html=1;align=center;verticalAlign=middle;resizable=0;points=[];autosize=1;strokeColor=none;fillColor=none;fontSize=16;fontStyle=1;" vertex="1" parent="1">
          <mxGeometry x="300" y="50" width="400" height="30" as="geometry"/>
        </mxCell>
        <mxCell id="id_20" value="NODE: A-0\nTITLE: Система управління інтернет-магазином\nNUMBER: 1" style="text;html=1;align=left;verticalAlign=top;resizable=0;points=[];autosize=1;strokeColor=none;fillColor=none;fontSize=10;" vertex="1" parent="1">
          <mxGeometry x="50" y="50" width="280" height="60" as="geometry"/>
        </mxCell>

      </root>
    </mxGraphModel>
  </diagram>
  <diagram id="architecture" name="Architecture Diagram">
    <mxGraphModel dx="1422" dy="827" grid="1" gridSize="10" guides="1" tooltips="1" connect="1" arrows="1" fold="1" page="1" pageScale="1" pageWidth="1169" pageHeight="827" math="0" shadow="0">
      <root>
        <mxCell id="0"/>
        <mxCell id="1" parent="0"/>
        <mxCell id="id_2" value="Архітектура системи ТехноСвіт" style="text;html=1;align=center;verticalAlign=middle;resizable=0;points=[];autosize=1;strokeColor=none;fillColor=none;fontSize=18;fontStyle=1;" vertex="1" parent="1">
          <mxGeometry x="400" y="30" width="300" height="30" as="geometry"/>
        </mxCell>
        <mxCell id="id_3" value="Рівень представлення\n(Presentation Layer)" style="rounded=0;whiteSpace=wrap;html=1;fillColor=#dae8fc;strokeColor=#6c8ebf;fontStyle=1;" vertex="1" parent="1">
          <mxGeometry x="100" y="100" width="800" height="60" as="geometry"/>
        </mxCell>
        <mxCell id="id_4" value="React.js\nфронтенд" style="rounded=1;whiteSpace=wrap;html=1;fillColor=#e1d5e7;strokeColor=#9673a6;" vertex="1" parent="1">
          <mxGeometry x="120" y="200" width="100" height="60" as="geometry"/>
        </mxCell>
        <mxCell id="id_5" value="HTML/CSS\nінтерфейс" style="rounded=1;whiteSpace=wrap;html=1;fillColor=#e1d5e7;strokeColor=#9673a6;" vertex="1" parent="1">
          <mxGeometry x="270" y="200" width="100" height="60" as="geometry"/>
        </mxCell>
        <mxCell id="id_6" value="JavaScript\nлогіка" style="rounded=1;whiteSpace=wrap;html=1;fillColor=#e1d5e7;strokeColor=#9673a6;" vertex="1" parent="1">
          <mxGeometry x="420" y="200" width="100" height="60" as="geometry"/>
        </mxCell>
        <mxCell id="id_7" value="Tailwind CSS\nстилізація" style="rounded=1;whiteSpace=wrap;html=1;fillColor=#e1d5e7;strokeColor=#9673a6;" vertex="1" parent="1">
          <mxGeometry x="570" y="200" width="100" height="60" as="geometry"/>
        </mxCell>
        <mxCell id="id_8" value="Vite\nзбірка" style="rounded=1;whiteSpace=wrap;html=1;fillColor=#e1d5e7;strokeColor=#9673a6;" vertex="1" parent="1">
          <mxGeometry x="720" y="200" width="100" height="60" as="geometry"/>
        </mxCell>
        <mxCell id="id_9" value="Рівень бізнес-логіки\n(Business Logic Layer)" style="rounded=0;whiteSpace=wrap;html=1;fillColor=#fff2cc;strokeColor=#d6b656;fontStyle=1;" vertex="1" parent="1">
          <mxGeometry x="100" y="320" width="800" height="60" as="geometry"/>
        </mxCell>
        <mxCell id="id_10" value="Laravel\nFramework" style="rounded=1;whiteSpace=wrap;html=1;fillColor=#ffe6cc;strokeColor=#d79b00;" vertex="1" parent="1">
          <mxGeometry x="120" y="420" width="100" height="60" as="geometry"/>
        </mxCell>
        <mxCell id="id_11" value="PHP\nControllers" style="rounded=1;whiteSpace=wrap;html=1;fillColor=#ffe6cc;strokeColor=#d79b00;" vertex="1" parent="1">
          <mxGeometry x="270" y="420" width="100" height="60" as="geometry"/>
        </mxCell>
        <mxCell id="id_12" value="Eloquent\nORM" style="rounded=1;whiteSpace=wrap;html=1;fillColor=#ffe6cc;strokeColor=#d79b00;" vertex="1" parent="1">
          <mxGeometry x="420" y="420" width="100" height="60" as="geometry"/>
        </mxCell>
        <mxCell id="id_13" value="API\nEndpoints" style="rounded=1;whiteSpace=wrap;html=1;fillColor=#ffe6cc;strokeColor=#d79b00;" vertex="1" parent="1">
          <mxGeometry x="570" y="420" width="100" height="60" as="geometry"/>
        </mxCell>
        <mxCell id="id_14" value="Middleware\nAuthentication" style="rounded=1;whiteSpace=wrap;html=1;fillColor=#ffe6cc;strokeColor=#d79b00;" vertex="1" parent="1">
          <mxGeometry x="720" y="420" width="100" height="60" as="geometry"/>
        </mxCell>
        <mxCell id="id_15" value="Рівень даних\n(Data Layer)" style="rounded=0;whiteSpace=wrap;html=1;fillColor=#f8cecc;strokeColor=#b85450;fontStyle=1;" vertex="1" parent="1">
          <mxGeometry x="100" y="540" width="800" height="60" as="geometry"/>
        </mxCell>
        <mxCell id="id_16" value="SQLite\nDatabase" style="rounded=1;whiteSpace=wrap;html=1;fillColor=#d5e8d4;strokeColor=#82b366;" vertex="1" parent="1">
          <mxGeometry x="120" y="640" width="100" height="60" as="geometry"/>
        </mxCell>
        <mxCell id="id_17" value="Migration\nFiles" style="rounded=1;whiteSpace=wrap;html=1;fillColor=#d5e8d4;strokeColor=#82b366;" vertex="1" parent="1">
          <mxGeometry x="270" y="640" width="100" height="60" as="geometry"/>
        </mxCell>
        <mxCell id="id_18" value="Model\nClasses" style="rounded=1;whiteSpace=wrap;html=1;fillColor=#d5e8d4;strokeColor=#82b366;" vertex="1" parent="1">
          <mxGeometry x="420" y="640" width="100" height="60" as="geometry"/>
        </mxCell>
        <mxCell id="id_19" value="Seeders\n&amp; Factories" style="rounded=1;whiteSpace=wrap;html=1;fillColor=#d5e8d4;strokeColor=#82b366;" vertex="1" parent="1">
          <mxGeometry x="570" y="640" width="100" height="60" as="geometry"/>
        </mxCell>
        <mxCell id="id_20" value="File\nStorage" style="rounded=1;whiteSpace=wrap;html=1;fillColor=#d5e8d4;strokeColor=#82b366;" vertex="1" parent="1">
          <mxGeometry x="720" y="640" width="100" height="60" as="geometry"/>
        </mxCell>
        <mxCell id="id_21" value="Зовнішні сервіси" style="rounded=0;whiteSpace=wrap;html=1;fillColor=#f5f5f5;strokeColor=#666666;fontStyle=1;" vertex="1" parent="1">
          <mxGeometry x="950" y="320" width="150" height="60" as="geometry"/>
        </mxCell>
        <mxCell id="id_22" value="Email\nService" style="rounded=1;whiteSpace=wrap;html=1;fillColor=#f5f5f5;strokeColor=#666666;" vertex="1" parent="1">
          <mxGeometry x="970" y="420" width="80" height="60" as="geometry"/>
        </mxCell>
        <mxCell id="id_23" value="Payment\nGateway" style="rounded=1;whiteSpace=wrap;html=1;fillColor=#f5f5f5;strokeColor=#666666;" vertex="1" parent="1">
          <mxGeometry x="970" y="500" width="80" height="60" as="geometry"/>
        </mxCell>
        <mxCell id="id_24" value="Image\nProcessing" style="rounded=1;whiteSpace=wrap;html=1;fillColor=#f5f5f5;strokeColor=#666666;" vertex="1" parent="1">
          <mxGeometry x="970" y="580" width="80" height="60" as="geometry"/>
        </mxCell>
        <mxCell id="id_25" value="" style="endArrow=classic;startArrow=classic;html=1;rounded=0;strokeWidth=3;" edge="1" parent="1" source="id_3" target="id_9">
          <mxGeometry width="50" height="50" relative="1" as="geometry"/>
        </mxCell>
        <mxCell id="id_26" value="" style="endArrow=classic;startArrow=classic;html=1;rounded=0;strokeWidth=3;" edge="1" parent="1" source="id_9" target="id_15">
          <mxGeometry width="50" height="50" relative="1" as="geometry"/>
        </mxCell>
        <mxCell id="id_27" value="Технологічний стек:\n• Frontend: HTML, CSS, JavaScript, Tailwind CSS\n• Backend: PHP 8.2, Laravel 11\n• Database: SQLite\n• Build Tools: Vite, Composer, NPM\n• Version Control: Git" style="rounded=1;whiteSpace=wrap;html=1;fillColor=#f9f9f9;strokeColor=#999999;align=left;verticalAlign=top;fontSize=10;" vertex="1" parent="1">
          <mxGeometry x="50" y="750" width="300" height="120" as="geometry"/>
        </mxCell>

      </root>
    </mxGraphModel>
  </diagram>
</mxfile>